PathFileType	4	(X/Y/Z)	Patient4_TMGait_0pt3_03_left_04.trc.trc
DataRate	CameraRate	NumFrames	NumMarkers	Units	OrigDataRate	OrigDataStartFrame	OrigNumFrames
49.645390070922	49.645390070922	4	33	mm	49.645390070922	36	       141
Frame#	Time	Sacral			L.Shoulder			Chest			R.Shoulder			Neck			R.ASIS			L.ASIS			R.Thigh.Superior			R.Thigh.Lateral			R.Thigh.Inferior			R.Patella			L.Thigh.Superior			L.Thigh.Lateral			L.Thigh.Inferior			L.Patella			L.Shank.Superior			L.Shank.Lateral			L.Shank.Inferior			R.Shank.Superior			R.Shank.Lateral			R.Shank.Inferior			R.Heel			R.Midfoot.Superior			R.Midfoot.Lateral			R.Toe			L.Heel			L.Midfoot.Lateral			L.Midfoot.Superior			L.Toe			L.Elbow			L.Wrist			R.Elbow			R.Wrist			
		X1	Y1	Z1	X2	Y2	Z2	X3	Y3	Z3	X4	Y4	Z4	X5	Y5	Z5	X6	Y6	Z6	X7	Y7	Z7	X8	Y8	Z8	X9	Y9	Z9	X10	Y10	Z10	X11	Y11	Z11	X12	Y12	Z12	X13	Y13	Z13	X14	Y14	Z14	X15	Y15	Z15	X16	Y16	Z16	X17	Y17	Z17	X18	Y18	Z18	X19	Y19	Z19	X20	Y20	Z20	X21	Y21	Z21	X22	Y22	Z22	X23	Y23	Z23	X24	Y24	Z24	X25	Y25	Z25	X26	Y26	Z26	X27	Y27	Z27	X28	Y28	Z28	X29	Y29	Z29	X30	Y30	Z30	X31	Y31	Z31	X32	Y32	Z32	X33	Y33	Z33	

36	7.065000000000	739.028666399275	1010.125654489360	501.970746591045	871.270300014107	1410.671014133324	261.595707336366	1007.174214728288	1359.411921884763	403.629790405897	958.878063881628	1450.212008556365	581.816682163310	879.063547125192	1487.531229591194	411.840609865959	977.426046445914	935.037092773122	585.253407379120	927.389856637910	957.160712751727	316.689987660929	969.862023864056	717.304196009513	557.179223968927	872.161831414407	623.673160067701	628.322969125922	923.515901626391	557.839318165185	541.784969263345	902.716286331292	469.675988257503	550.830673916873	994.899633099139	760.548760014102	347.026769670724	916.931299906075	635.542022506440	286.125323135932	1014.221689349205	569.982369094026	342.714427424046	1020.392275037894	502.909983870719	348.147752985476	1005.430072618495	429.567395751512	339.697919538436	929.574927162731	302.660933375257	296.831385614177	1007.360350747406	200.885547099450	359.750441728107	853.912296779189	389.628678595513	563.897468100192	763.783137684210	306.838697737017	633.982456849457	778.965684839526	204.251156659155	572.789997521896	610.089519140978	59.011807338010	554.096123729866	786.454422018741	100.169044715053	586.046226476863	693.565227099311	47.130557535106	627.389830797981	899.994373670966	41.186328071800	616.256271822506	905.056517059289	37.379020936908	410.119079520714	976.806878179948	33.902795509969	326.554023828406	1057.480646976893	101.220480689222	349.092681234347	1186.433897486448	55.937835430237	320.225101635277	767.894792266395	1062.228787171759	198.382085730324	813.516602448262	804.416405697795	195.207990670885	1161.278730580689	1186.210550752421	694.903976595614	1377.492853349440	1286.848191067046	611.173888405476	
37	7.085142857143	738.843313632185	1010.937117517010	497.893855735451	872.647617161228	1410.320102907418	256.746767286271	1007.602078749137	1359.973619561922	399.986788112819	958.052248451334	1451.890326866011	577.235850568187	879.299364598724	1488.150026353915	406.610948101973	976.836690190668	936.117457415776	582.772227543987	928.300913047237	958.140961393125	313.927723607046	971.705843816112	718.514202326472	554.699014679835	874.798537139797	623.845443691255	625.402474991644	927.905615315537	558.133342726168	539.477930760741	907.726650782938	468.203549412851	549.350381167181	994.283964490834	760.418738581390	343.379920999934	915.198238806560	635.942555442822	283.538183916392	1012.169497591779	569.796224057894	339.944255652157	1017.923344140773	502.655290700938	345.697434414405	1002.227218762817	429.291823224359	337.667097900168	925.115296776080	302.844153624033	295.653090575810	1002.199836765122	200.760926369064	358.907660721334	856.490546831544	389.493245855446	562.255248443294	763.984401388698	309.280974983998	632.159755843277	777.398972582616	205.920214309427	571.950497501613	605.462721423467	64.436304155685	553.491352342051	782.710084085277	101.299826785677	585.771031038327	688.551532378355	50.584345843710	626.921501309119	894.563242533440	40.069223784813	616.380365449349	899.089373458511	37.347910786204	409.980454722665	970.898600939543	33.879206919645	326.440572151106	1051.322991975296	101.486433231343	348.937236152214	1180.408963200294	56.638771379617	320.385056186801	780.301463235827	1058.847945639442	190.217355815900	835.099245106853	802.723475724782	184.213694912525	1158.745906569857	1186.112833220122	691.029752967631	1374.276637180057	1285.710488093998	605.081226699723	
38	7.105285714286	738.432655534747	1011.546108805861	493.996036043565	873.803246267062	1410.094717195337	252.273246752504	1007.706254222205	1360.562883858246	396.757732385330	956.833610840418	1453.482138649031	573.091720987562	879.281664198844	1488.774435463892	401.801825759458	976.079707893321	937.149757950878	580.325865109390	928.927007925952	959.128900092027	311.202481628456	974.011771436751	719.882815317547	552.149635766086	878.275003001214	623.894552039089	622.475901401161	933.303972898215	558.467566621489	537.189072923946	913.906628233081	466.598834240241	548.035031568891	993.312031854449	760.140096460724	339.717381864512	913.008917076939	636.262862404944	281.008156214735	1009.580386488251	569.487722144278	337.245799809206	1014.930886996893	502.333900302811	343.313707770378	998.582228981833	428.977149567121	335.706639091361	920.339699120640	302.941355980890	294.530199633589	996.830731293441	200.634689940557	358.100030487594	860.067581753766	389.294849793394	560.660257537797	765.036353274599	311.929444732252	630.284365516339	776.452597343918	207.798364152676	571.092865906570	601.195408000612	70.634152934981	552.727256119867	779.363203389067	102.614906863064	585.520794060627	683.757150852883	54.569710287333	626.377328993159	889.231371001839	38.975269734080	616.517044043336	893.087374771017	37.296850939902	409.882223313201	964.915439015393	33.852888400710	326.340987216966	1045.077246919921	101.757613950645	348.752847133828	1174.305457766759	57.356201594468	320.424534951001	793.879157750011	1055.961072529287	181.768194173176	857.238877650195	801.785985322089	173.533954956873	1154.975348848410	1185.162927133650	687.760076891558	1370.332724275770	1283.015969535968	599.714869920645	
39	7.125428571429	737.843922449671	1011.920185874051	490.287960611815	874.671424601292	1409.973975511075	248.197433662952	1007.466860002024	1361.156107226077	393.918858845888	955.259234287515	1454.938393578406	569.393054431006	878.990296344331	1489.366351092100	397.442748158955	975.209670798903	938.081124266327	577.876485168683	929.303917646141	960.095566064776	308.494660508733	976.726309457315	721.351831318641	549.521243934074	882.503911312519	623.821335609494	619.555756858627	939.573977494376	558.834120566867	534.914276369098	921.085540115261	464.930444573341	546.854998494144	992.123823567530	759.765234291780	336.100055482342	910.550107931419	636.515429752277	278.544043513327	1006.645900640809	569.084378770597	334.637055683207	1011.591433349039	501.952308321704	341.029182005980	994.678288556586	428.616390172423	333.842777485370	915.417224651040	302.958823722169	293.446630979356	991.354611468678	200.481741383892	357.350920233139	864.552552923565	389.050546608331	559.096863990954	766.898731027336	314.768812365827	628.343282436894	776.115054912823	209.883834215158	570.181352064889	597.355593563555	77.564001383041	551.757786375233	776.417356052368	104.102876739899	585.254718207184	679.219311182871	59.083548521791	625.717783492384	883.989813474657	37.962873467716	616.643496906073	887.052788808469	37.235605829407	409.820802956651	958.864381322820	33.819035669026	326.252470248488	1038.791019714729	101.984600304974	348.558147334955	1168.152224215089	57.976066052251	320.361973843087	808.453405903996	1053.660073879090	173.190641640724	879.805207873284	801.659479070315	163.300632982513	1149.854273832822	1183.280278475203	685.131713868302	1365.611293922661	1278.609775528749	595.176148259021	
